<?xml version="1.0" standalone="no"?><!DOCTYPE svg PUBLIC "-//W3C//DTD SVG 1.1//EN" "http://www.w3.org/Graphics/SVG/1.1/DTD/svg11.dtd"><svg t="1775617898251" class="icon" viewBox="0 0 1024 1024" version="1.1" xmlns="http://www.w3.org/2000/svg" p-id="1108" xmlns:xlink="http://www.w3.org/1999/xlink" width="200" height="200"><path d="M851.9168 128.768a79.104 79.104 0 0 0-74.8544-70.7072c-286.72-14.1312-361.1648 256.3584-377.1904 339.6096A30.72 30.72 0 0 0 430.08 434.176h287.9488a30.72 30.72 0 0 0 21.4016-8.6528c63.4368-61.5424 126.3104-171.776 112.4864-296.7552zM333.2096 404.9408c9.1136-47.36 37.2224-155.3408 112.64-237.056A238.6944 238.6944 0 0 0 284.7744 138.24a67.8912 67.8912 0 0 0-55.6544 57.2416c-17.8688 124.0064 45.2096 192 106.4448 228.2496a31.1296 31.1296 0 0 1-2.3552-18.7904z" fill="#73CAFF" p-id="1109"></path><path d="M885.248 411.392A104.8064 104.8064 0 0 0 803.84 372.736H220.16a105.2672 105.2672 0 0 0-103.2192 126.208l74.9056 368.64a105.5744 105.5744 0 0 0 103.1168 84.3264h433.92a105.6256 105.6256 0 0 0 103.168-84.3264l74.8544-368.64a104.9088 104.9088 0 0 0-21.6576-87.552z m-38.5536 75.3152l-74.8544 368.64a43.9808 43.9808 0 0 1-42.9568 35.1232H294.9632a43.9296 43.9296 0 0 1-42.9056-35.4304L177.152 486.4A43.776 43.776 0 0 1 220.16 434.176h583.68a43.776 43.776 0 0 1 42.9056 52.5312z" fill="#3D3937" p-id="1110"></path><path d="M709.0176 529.6128a30.72 30.72 0 0 0-35.84 24.4736l-34.9184 183.9616a30.72 30.72 0 0 0 24.4736 35.84 32.1024 32.1024 0 0 0 5.7856 0.5632 30.72 30.72 0 0 0 30.1056-25.0368l34.9184-183.9616a30.72 30.72 0 0 0-24.5248-35.84z" fill="#3D3937" p-id="1111"></path></svg>
