<?xml version="1.0" encoding="UTF-8"?>
<svg version="1.1" xmlns="http://www.w3.org/2000/svg" width="512" height="512" viewBox="0 0 512 512">
<path d="M0 0 C1.59375996 -0.00807831 1.59375996 -0.00807831 3.21971709 -0.01631981 C6.75618172 -0.0305507 10.29226948 -0.02350755 13.82875061 -0.01637268 C16.37392476 -0.02207875 18.91909635 -0.02904393 21.46426392 -0.03717041 C27.64558936 -0.05323132 33.82677717 -0.05520793 40.00811713 -0.04995751 C45.03496862 -0.04590634 50.06179014 -0.04737057 55.08864021 -0.05270576 C55.80570328 -0.05345419 56.52276636 -0.05420261 57.26155861 -0.05497371 C58.71854023 -0.05650528 60.17552185 -0.05804363 61.63250346 -0.05958868 C75.27680938 -0.07329719 88.92105787 -0.06788751 102.56536246 -0.05640347 C115.03128214 -0.0464714 127.49705338 -0.05941418 139.96295016 -0.08333766 C152.78332598 -0.10775484 165.60363273 -0.11733019 178.42403132 -0.11068493 C185.61358207 -0.1071987 192.8030187 -0.10938531 199.9925518 -0.12693596 C206.7535559 -0.14323677 213.51423185 -0.13843572 220.27524376 -0.11963081 C222.75235694 -0.11594843 225.22949116 -0.11904308 227.70658493 -0.1295166 C231.09629979 -0.14275149 234.48508054 -0.13115569 237.87475586 -0.11352539 C239.33393202 -0.1279329 239.33393202 -0.1279329 240.82258648 -0.14263147 C252.45728487 -0.01870684 262.71439868 4.46498308 271.161026 12.4228363 C278.81873119 20.53857246 283.11867346 28.97446438 283.13509083 40.14294529 C283.13744306 40.8246797 283.13979529 41.50641411 283.1422188 42.20880714 C283.14890059 44.5039261 283.14845082 46.79898834 283.14804077 49.09411621 C283.15133991 50.75202424 283.15506559 52.40993146 283.15918225 54.06783766 C283.16920474 58.63239897 283.17291945 63.19694713 283.17557156 67.76151788 C283.17947389 72.68127335 283.1890523 77.60101839 283.19778442 82.52076721 C283.21755117 94.40653692 283.22761545 106.29230749 283.23651221 118.17808953 C283.24089489 123.77479826 283.24626177 129.37150605 283.25150108 134.96821404 C283.26851381 153.57223979 283.28300799 172.17626494 283.29024982 190.78029728 C283.29215973 195.60865339 283.29408006 200.4370095 283.29603577 205.2653656 C283.29651951 206.46543593 283.29700325 207.66550627 283.29750165 208.90194236 C283.30580197 228.34236463 283.33113875 247.78272536 283.36361644 267.22312076 C283.396686 287.18045075 283.41469851 307.13774948 283.41789407 327.09510702 C283.42005929 338.30109467 283.42880975 349.50699261 283.45435524 360.71295357 C283.47606082 370.25654677 283.48411334 379.80002846 283.47438846 389.34364355 C283.46984334 394.21183685 283.47174244 399.07980006 283.4911499 403.94796181 C283.50877909 408.4086451 283.50778581 412.8689304 283.49225261 417.32961791 C283.48987617 418.93937869 283.49420198 420.54916702 283.50608126 422.15888572 C283.60120377 435.90515364 281.18073049 446.79831314 272.00086975 457.38768005 C263.41330535 465.45010562 253.31643181 469.14592826 242.31434631 472.7731781 C241.04856613 473.19527473 239.78296109 473.61789692 238.51751709 474.04100037 C235.10433117 475.18052449 231.68872724 476.31262974 228.27259159 477.44327521 C224.68964886 478.63045748 221.10891479 479.82426576 217.52790833 481.01727295 C211.52070291 483.01753081 205.51203985 485.01335432 199.50233459 487.00608826 C191.79090578 489.56310748 184.08179283 492.12703442 176.37343216 494.69328594 C169.7363653 496.90287418 163.09840827 499.10978351 156.4602232 501.31600976 C155.03740026 501.78893521 153.6146079 502.26195269 152.19184589 502.73506141 C147.51857141 504.28905484 142.84442097 505.8403817 138.16981506 507.3903656 C136.99051926 507.7825679 135.81122345 508.1747702 134.59619141 508.57885742 C133.51682816 508.93626007 132.4374649 509.29366272 131.32539368 509.66189575 C130.38818104 509.97287547 129.4509684 510.28385519 128.48535538 510.60425854 C117.98824533 513.91426435 104.55858002 514.20406399 94.4188385 509.70799255 C83.10527557 503.53031199 74.41454187 495.03571652 70.40296936 482.52268982 C68.64776693 475.47701403 68.77601679 468.54915748 68.87586975 461.32518005 C68.88489319 460.07801208 68.89391663 458.83084412 68.9032135 457.54588318 C68.92660766 454.49294501 68.95938801 451.440417 69.00086975 448.38768005 C68.03193283 448.39878311 67.06299591 448.40988617 66.06469727 448.42132568 C56.8718853 448.5232904 47.6791901 448.59792503 38.48593807 448.64674091 C33.76109941 448.6726827 29.03672222 448.70779366 24.31214905 448.76487732 C19.74091713 448.81975397 15.17012519 448.84921607 10.59858894 448.86206627 C8.86648711 448.87120746 7.1344056 448.88905386 5.40249443 448.91633034 C-13.21302778 449.1974849 -28.18407407 444.80627317 -42.18663025 431.82518005 C-56.80435097 416.41731227 -59.70820096 398.11546157 -59.52061462 377.67576599 C-59.49893804 374.86273674 -59.5206545 372.05220063 -59.54600525 369.23924255 C-59.54336526 367.42413283 -59.53824712 365.60902464 -59.53038025 363.79393005 C-59.53847717 362.96671448 -59.5465741 362.1394989 -59.55491638 361.28721619 C-59.46328102 355.55576067 -58.20155864 351.18408053 -54.99913025 346.38768005 C-50.11796509 341.74462052 -46.03212419 341.03039992 -39.5030365 341.10643005 C-34.5486647 341.66292735 -31.85987719 344.41061596 -28.68663025 348.01268005 C-25.58763063 352.37423508 -25.83245921 356.03182858 -25.78819275 361.2353363 C-25.76010088 363.05630848 -25.73143629 364.87727189 -25.70225525 366.69822693 C-25.66117207 369.56597938 -25.62428383 372.43357236 -25.59776306 375.30149841 C-25.56993153 378.07145559 -25.52403693 380.84067082 -25.47569275 383.6103363 C-25.47243988 384.45443558 -25.46918701 385.29853485 -25.46583557 386.16821289 C-25.28640778 394.98138951 -23.12833376 402.18514799 -17.026474 408.66111755 C-10.10407971 414.55648995 -1.78775284 415.48013361 7.01600647 415.59300232 C7.689879 415.60290192 8.36375153 415.61280151 9.05804443 415.6230011 C11.26551407 415.65436189 13.47300516 415.67927189 15.68055725 415.7040863 C17.21898428 415.72467785 18.75740593 415.74567487 20.29582214 415.76705933 C24.33004887 415.82205291 28.36432472 415.87156161 32.39863586 415.91990662 C36.52129957 415.97028829 40.6438926 416.02588706 44.76649475 416.08103943 C52.84455986 416.18834286 60.9226844 416.28984868 69.00086975 416.38768005 C68.99973059 415.68127089 68.99859143 414.97486173 68.99741775 414.24704623 C68.93025363 372.36045014 68.87879496 330.47386032 68.84767376 288.58722119 C68.84392173 283.55553812 68.84003876 278.52385515 68.83607483 273.49217224 C68.8352879 272.4904734 68.83450097 271.48877456 68.83369019 270.45672122 C68.82064357 254.24676267 68.79699382 238.03683611 68.76941136 221.82689652 C68.74133647 205.18853798 68.72468908 188.55019618 68.71860427 171.91181493 C68.71449215 161.64870704 68.70151389 151.38568957 68.67712035 141.12260953 C68.66123744 134.08061193 68.65647518 127.03866093 68.66036562 119.99664673 C68.66228319 115.93646389 68.65938613 111.87643882 68.64325333 107.81628418 C68.62856586 104.09252195 68.62797416 100.36902238 68.63817307 96.64524761 C68.64002435 94.6737564 68.62716517 92.70226791 68.61362582 90.73082232 C68.68728354 76.00316987 72.27563785 64.62702785 82.18836975 53.57518005 C91.2061188 45.39042203 103.89306814 42.16772384 115.25086975 38.51268005 C116.78630512 38.01092924 118.32146353 37.50833005 119.8563385 37.00486755 C123.56807171 35.78936419 127.28332925 34.58529845 131.00086975 33.38768005 C114.12786176 33.31741677 97.25489981 33.2646074 80.38177872 33.23224354 C72.54626304 33.21681311 64.71083858 33.19579729 56.87538147 33.16136169 C50.04133659 33.13134162 43.20735781 33.1120773 36.37324882 33.10541457 C32.758848 33.10152352 29.14463621 33.09246015 25.53029633 33.07048988 C21.4829694 33.04609009 17.43596542 33.04571809 13.38856506 33.04710388 C12.20676163 33.03631805 11.02495819 33.02553223 9.80734253 33.01441956 C-0.54414312 33.05257772 -10.68462282 33.86946798 -18.3780365 41.41893005 C-22.73239203 46.70711123 -25.10697401 52.65621478 -25.14097595 59.51023865 C-25.14801041 60.3114212 -25.15504486 61.11260376 -25.16229248 61.93806458 C-25.16645676 62.79542206 -25.17062103 63.65277954 -25.1749115 64.53611755 C-25.19810732 66.3642541 -25.22222456 68.19237914 -25.24717712 70.02049255 C-25.28228515 72.89296712 -25.31164116 75.765017 -25.32505798 78.63768005 C-25.34056671 81.41684374 -25.38078778 84.19477984 -25.4249115 86.97361755 C-25.42300308 87.82692657 -25.42109467 88.6802356 -25.41912842 89.55940247 C-25.52977048 94.97704584 -26.41440349 98.08206009 -29.99913025 102.38768005 C-35.02748058 106.81741725 -37.88078315 107.68784594 -44.46006775 107.6025238 C-49.22865197 107.19902822 -52.01343228 105.42813902 -55.24913025 102.01268005 C-58.96894552 96.43295714 -59.31781078 91.80842491 -59.33506775 85.2743988 C-59.34172455 84.38718643 -59.34838135 83.49997406 -59.35523987 82.58587646 C-59.36535225 80.70562299 -59.37005733 78.82533374 -59.36973572 76.9450531 C-59.3740577 74.12255653 -59.41024774 71.30169171 -59.448349 68.47947693 C-59.57103279 48.85871791 -56.16017364 32.27099062 -42.21006775 17.6025238 C-41.48045837 16.87162537 -40.750849 16.14072693 -39.99913025 15.38768005 C-39.43452087 14.81146912 -38.8699115 14.23525818 -38.28819275 13.6415863 C-27.94414233 3.92827067 -13.84849427 -0.08536289 0 0 Z M223.31434631 37.25559998 C222.06139267 37.66697205 220.80843903 38.07834412 219.51751709 38.50218201 C216.0987072 39.62543115 212.68512081 40.7638048 209.27259159 41.9059732 C206.41852947 42.85975126 203.56206052 43.8062038 200.70559192 44.75274545 C193.96749128 46.9857411 187.23363942 49.23121294 180.50233459 51.48460388 C173.56424474 53.80698023 166.61945009 56.10838342 159.67101121 58.39959067 C153.69570674 60.37071283 147.72475048 62.35460898 141.75711226 64.34882051 C138.19695241 65.53838971 134.63536491 66.72310847 131.06954193 67.89560509 C127.09657743 69.20272364 123.13302636 70.53638873 119.16981506 71.87278748 C117.40087135 72.44894554 117.40087135 72.44894554 115.59619141 73.03674316 C113.97714653 73.58976608 113.97714653 73.58976608 112.32539368 74.15396118 C111.38818104 74.466449 110.4509684 74.77893682 109.48535538 75.10089397 C105.83772515 76.99010587 103.81869419 79.75203117 102.00086975 83.38768005 C101.90291086 85.48307201 101.87166696 87.58166964 101.86944199 89.67934895 C101.86738935 90.33524764 101.86533672 90.99114634 101.86322188 91.66692075 C101.85752372 93.88614029 101.85901258 96.10529832 101.86042786 98.32452393 C101.85784583 99.92310985 101.85483313 101.52169512 101.85142446 103.12027949 C101.84333208 107.52992159 101.84156364 111.93954743 101.84082699 116.34919608 C101.83898031 121.0984533 101.83143495 125.84770202 101.82469177 130.59695435 C101.8110921 140.98940102 101.80508121 151.38184385 101.80068111 161.77429795 C101.79792148 168.25931966 101.79368465 174.74433988 101.78917694 181.22936058 C101.7769822 199.17278481 101.76668325 217.11620783 101.76330185 235.05963612 C101.76308228 236.20874123 101.76286272 237.35784634 101.7626365 238.54177282 C101.76241822 239.69367915 101.76219994 240.84558547 101.76197505 242.03239805 C101.76153158 244.36672707 101.76108502 246.7010561 101.76063538 249.03538513 C101.76041395 250.19330111 101.76019252 251.35121708 101.75996438 252.54422142 C101.75601508 271.31306068 101.73855796 290.08186113 101.71527585 308.8506854 C101.69158357 328.1050557 101.67910097 347.35940652 101.67793393 366.61379164 C101.67701598 377.43059665 101.67123351 388.24735111 101.65311432 399.06414223 C101.63774196 408.27380626 101.63257588 417.48340414 101.64085242 426.69307856 C101.6447691 431.39440535 101.64377991 436.0955988 101.62979507 440.79690933 C101.61711694 445.09816912 101.61819973 449.39919454 101.63038579 453.70045372 C101.6323534 455.25902124 101.6292156 456.81760501 101.62054142 458.37614963 C101.60951584 460.49054928 101.61688853 462.60411199 101.62893295 464.71848774 C101.62833586 465.8941569 101.62773878 467.06982606 101.62712359 468.28112155 C102.13904556 472.53619014 103.80788867 475.10633 106.68836975 478.20018005 C111.91636889 480.88482826 117.3584077 479.44113007 122.71270752 477.81338501 C124.94458712 477.08115696 127.17216615 476.33573805 129.39613342 475.57981873 C130.61822006 475.17498764 131.8403067 474.77015656 133.09942627 474.35305786 C136.4334895 473.24813404 139.76238989 472.12837044 143.09042907 471.00545287 C146.58212565 469.82979257 150.07806482 468.66687791 153.57345581 467.5022583 C159.43931049 465.54572712 165.30200076 463.57995194 171.16273499 461.60813904 C177.93136868 459.33094562 184.70411094 457.06635036 191.47935694 454.80891246 C198.70591707 452.4009607 205.92939784 449.9838754 213.15200639 447.5641005 C215.22827139 446.86917537 217.30509712 446.17594937 219.38205528 445.48309898 C223.25507437 444.19050059 227.12458574 442.88769898 230.99378967 441.58372498 C232.14143799 441.20177979 233.2890863 440.81983459 234.47151184 440.42631531 C235.52700729 440.06879684 236.58250275 439.71127838 237.66998291 439.34292603 C238.58415072 439.03596896 239.49831854 438.7290119 240.44018841 438.41275311 C244.70779715 436.70437548 247.42488448 435.25165795 250.00086975 431.38768005 C251.05117995 427.51120213 251.12798772 423.81355956 251.13229752 419.81054115 C251.13537647 418.8350624 251.13537647 418.8350624 251.13851762 417.83987701 C251.1441784 415.65768233 251.14273152 413.47555094 251.14131165 411.29335022 C251.1438958 409.71422452 251.1469091 408.13509946 251.15031505 406.55597532 C251.15838217 402.21398031 251.16017446 397.87200183 251.16091251 393.53000021 C251.16276352 388.8482427 251.170311 384.16649376 251.17704773 379.48474121 C251.19062859 369.24729165 251.19665512 359.00984601 251.20105839 348.77238894 C251.2038207 342.3816434 251.20805799 335.99089939 251.21256256 329.60015488 C251.22475391 311.90967466 251.23505414 294.21919565 251.23843765 276.52871132 C251.23865722 275.39655275 251.23887678 274.26439418 251.239103 273.09792777 C251.23932128 271.96305141 251.23953956 270.82817504 251.23976445 269.65890849 C251.24020792 267.35918911 251.24065448 265.05946974 251.24110413 262.75975037 C251.24132556 261.61900859 251.24154699 260.47826681 251.24177513 259.3029571 C251.24572486 240.81048682 251.26318485 222.31805589 251.28646365 203.82560082 C251.31016488 184.84458886 251.32263891 165.86359667 251.32380557 146.88256967 C251.32472292 136.22335883 251.33049039 125.56419931 251.34862518 114.90500259 C251.36400944 105.83051408 251.36915646 96.75609274 251.36088708 87.68159367 C251.35697491 83.05088177 251.35793787 78.42030523 251.37194443 73.78960991 C251.384649 69.5506617 251.38351625 65.31195105 251.37135372 61.07300334 C251.36939076 59.53938876 251.37250272 58.00575755 251.38119808 56.47216637 C251.39227433 54.38665664 251.38481431 52.30198776 251.37280655 50.21650124 C251.37370218 48.47935921 251.37370218 48.47935921 251.37461591 46.7071234 C250.84849464 42.03435367 249.45437702 38.05652173 246.31336975 34.45018005 C238.83205939 31.01282124 230.55393729 34.81874755 223.31434631 37.25559998 Z " fill="currentColor" transform="translate(228.99913024902344,-0.3876800537109375)"/>
<path d="M0 0 C0.99386719 -0.06058594 1.98773438 -0.12117188 3.01171875 -0.18359375 C10.86942241 1.29495641 16.97058313 8.8017639 22.42504883 14.27539062 C23.57537094 15.41804634 23.57537094 15.41804634 24.74893188 16.58378601 C27.26094872 19.0819977 29.7655644 21.58747168 32.26953125 24.09375 C34.02189117 25.84221965 35.7744734 27.59046653 37.52726746 29.33850098 C41.18947632 32.99326839 44.84781196 36.65186073 48.50366211 40.31298828 C53.18706425 45.00219983 57.88176865 49.67991246 62.57964039 54.35462189 C66.19738179 57.9576338 69.80817512 61.56754624 73.41699791 65.17948914 C75.14540646 66.90738467 76.87617689 68.63292099 78.60935402 70.35603333 C81.0291132 72.76345343 83.43913452 75.18022555 85.84692383 77.59960938 C86.56227798 78.30731979 87.27763214 79.01503021 88.0146637 79.7441864 C92.84460027 84.62566667 96.73832981 89.17449321 96.75 96.375 C96.76933594 97.16777344 96.78867188 97.96054688 96.80859375 98.77734375 C95.40054388 106.32759542 89.73927381 111.43749151 84.50219727 116.62011719 C83.71960541 117.40635971 82.93701355 118.19260223 82.13070679 119.00267029 C79.55410417 121.5873478 76.96684598 124.16105284 74.37890625 126.734375 C72.58005011 128.53271225 70.78171267 130.33156851 68.98387146 132.13092041 C65.22010343 135.89459886 61.45140453 139.6532362 57.6784668 143.40771484 C53.32318669 147.74180781 48.97682422 152.08468623 44.63524395 156.43249965 C40.44749403 160.62595258 36.25402723 164.81364899 32.05787468 168.99869537 C30.27714883 170.77557337 28.49776788 172.55380023 26.71975899 174.33339691 C24.2354683 176.81805847 21.74477936 179.29612096 19.25219727 181.77246094 C18.519048 182.50808762 17.78589874 183.24371429 17.03053284 184.00163269 C11.85307638 189.12535463 7.98976291 192.86519979 0.375 192.875 C-4.78943274 192.735592 -7.78986797 192.04280963 -11.6875 188.4375 C-15.78510606 183.8969095 -16.77192365 180.77268763 -17.015625 174.66796875 C-16.15614862 168.82557573 -12.53330018 164.91385267 -8.48168945 160.89111328 C-7.96431213 160.37329788 -7.44693481 159.85548248 -6.91387939 159.32197571 C-5.21653248 157.62670458 -3.50883918 155.94228538 -1.80078125 154.2578125 C-0.61614097 153.07877246 0.56783498 151.89906459 1.75117493 150.71871948 C4.85661503 147.6246943 7.97096025 144.5397875 11.08728027 141.45672607 C14.27002077 138.30475877 17.44420986 135.14420536 20.61914062 131.984375 C26.84194759 125.79367301 33.07419352 119.61258282 39.3125 113.4375 C38.45220373 113.43603344 37.59190746 113.43456688 36.70554161 113.43305588 C15.77357423 113.39600582 -5.158231 113.33701499 -26.09006691 113.25359726 C-36.21255383 113.21378626 -46.33496277 113.18140423 -56.45751953 113.16650391 C-65.28024653 113.15349808 -74.1028021 113.12656077 -82.92543256 113.08288693 C-87.59707388 113.06024806 -92.26850358 113.04459077 -96.94020462 113.04561615 C-101.33813667 113.04636133 -105.73560049 113.02846784 -110.13341141 112.99633217 C-111.74665186 112.98781944 -113.35994476 112.98609257 -114.97319794 112.99169731 C-117.17869277 112.99833848 -119.38269831 112.98041672 -121.58804321 112.95648193 C-123.43808173 112.95095118 -123.43808173 112.95095118 -125.32549477 112.94530869 C-130.47617023 112.16733318 -133.53903869 109.64640665 -137.0625 105.9375 C-139.46053575 100.77249991 -139.44131535 96.0372712 -138.6875 90.4375 C-136.37717989 85.46142593 -133.40528457 83.1235986 -128.6875 80.4375 C-125.32549477 79.92969131 -125.32549477 79.92969131 -121.58804321 79.91851807 C-120.89687987 79.91101681 -120.20571652 79.90351556 -119.49360883 79.895787 C-117.19025377 79.87557507 -114.88788922 79.88359907 -112.58447266 79.89160156 C-110.92842641 79.88286296 -109.27238861 79.87237617 -107.61636353 79.86027527 C-103.12919135 79.8324297 -98.64229488 79.82901026 -94.15504885 79.82999516 C-89.46246456 79.82686482 -84.77000422 79.80124407 -80.07748413 79.77801514 C-71.19536099 79.7374609 -62.31331125 79.71711577 -53.43110979 79.70404124 C-43.31743338 79.68816926 -33.20388186 79.64975278 -23.09027791 79.60944796 C-2.28939314 79.52705689 18.51148576 79.47295981 39.3125 79.4375 C38.30438766 78.43938042 38.30438766 78.43938042 37.27590942 77.4210968 C30.94072595 71.14674975 24.61349504 64.86447995 18.29394722 58.57438374 C15.04481145 55.34089836 11.79294654 52.11026068 8.53466797 48.88598633 C5.3898783 45.77381186 2.25249115 42.65434888 -0.87991714 39.52971458 C-2.07578395 38.33938735 -3.27428659 37.15170213 -4.47546005 35.96673012 C-6.15851798 34.30547468 -7.83192617 32.6350395 -9.50341797 30.9621582 C-10.0011673 30.4751947 -10.49891663 29.9882312 -11.01174927 29.48651123 C-15.10129038 25.36007506 -16.54285277 22.26005515 -17 16.5 C-16.83659323 11.06672491 -14.77007215 7.65539367 -11.1875 3.625 C-7.5939314 0.48062748 -4.64114065 0.19610453 0 0 Z " fill="currentColor" transform="translate(138.6875,127.5625)"/>
</svg>
